<mxfile host="app.diagrams.net" agent="Mozilla/5.0 (Windows NT 10.0; Win64; x64) AppleWebKit/537.36 (KHTML, like Gecko) Chrome/131.0.0.0 Safari/537.36" version="26.0.3" pages="2">
  <diagram name="ERD" id="2z-GSDcuN5Pbt97rMcDL">
    <mxGraphModel grid="1" page="1" gridSize="10" guides="1" tooltips="1" connect="1" arrows="1" fold="1" pageScale="1" pageWidth="827" pageHeight="1169" math="0" shadow="0">
      <root>
        <mxCell id="0" />
        <mxCell id="1" parent="0" />
        <mxCell id="HetMsq3Q_pw7XSKKTlNd-1" value="user" style="whiteSpace=wrap;html=1;align=center;" vertex="1" parent="1">
          <mxGeometry x="430" y="230" width="100" height="40" as="geometry" />
        </mxCell>
        <mxCell id="HetMsq3Q_pw7XSKKTlNd-16" style="rounded=0;orthogonalLoop=1;jettySize=auto;html=1;exitX=0;exitY=0;exitDx=0;exitDy=0;entryX=0.75;entryY=1;entryDx=0;entryDy=0;endArrow=none;endFill=0;" edge="1" parent="1" source="HetMsq3Q_pw7XSKKTlNd-4" target="HetMsq3Q_pw7XSKKTlNd-1">
          <mxGeometry relative="1" as="geometry" />
        </mxCell>
        <mxCell id="HetMsq3Q_pw7XSKKTlNd-4" value="user_id" style="ellipse;whiteSpace=wrap;html=1;align=center;fontStyle=4;" vertex="1" parent="1">
          <mxGeometry x="544" y="310" width="100" height="40" as="geometry" />
        </mxCell>
        <mxCell id="HetMsq3Q_pw7XSKKTlNd-11" style="rounded=0;orthogonalLoop=1;jettySize=auto;html=1;exitX=1;exitY=1;exitDx=0;exitDy=0;entryX=0.25;entryY=0;entryDx=0;entryDy=0;endArrow=none;endFill=0;" edge="1" parent="1" source="HetMsq3Q_pw7XSKKTlNd-6" target="HetMsq3Q_pw7XSKKTlNd-1">
          <mxGeometry relative="1" as="geometry" />
        </mxCell>
        <mxCell id="HetMsq3Q_pw7XSKKTlNd-6" value="user_first_name" style="ellipse;whiteSpace=wrap;html=1;align=center;" vertex="1" parent="1">
          <mxGeometry x="313.5" y="140" width="100" height="40" as="geometry" />
        </mxCell>
        <mxCell id="HetMsq3Q_pw7XSKKTlNd-14" style="rounded=0;orthogonalLoop=1;jettySize=auto;html=1;exitX=0.5;exitY=0;exitDx=0;exitDy=0;entryX=0.5;entryY=1;entryDx=0;entryDy=0;endArrow=none;endFill=0;" edge="1" parent="1" source="HetMsq3Q_pw7XSKKTlNd-7" target="HetMsq3Q_pw7XSKKTlNd-1">
          <mxGeometry relative="1" as="geometry" />
        </mxCell>
        <mxCell id="HetMsq3Q_pw7XSKKTlNd-7" value="user_email" style="ellipse;whiteSpace=wrap;html=1;align=center;" vertex="1" parent="1">
          <mxGeometry x="430" y="330" width="100" height="40" as="geometry" />
        </mxCell>
        <mxCell id="HetMsq3Q_pw7XSKKTlNd-13" style="rounded=0;orthogonalLoop=1;jettySize=auto;html=1;exitX=0;exitY=1;exitDx=0;exitDy=0;entryX=0.75;entryY=0;entryDx=0;entryDy=0;endArrow=none;endFill=0;" edge="1" parent="1" source="HetMsq3Q_pw7XSKKTlNd-8" target="HetMsq3Q_pw7XSKKTlNd-1">
          <mxGeometry relative="1" as="geometry" />
        </mxCell>
        <mxCell id="HetMsq3Q_pw7XSKKTlNd-8" value="user_password" style="ellipse;whiteSpace=wrap;html=1;align=center;" vertex="1" parent="1">
          <mxGeometry x="544" y="140" width="100" height="40" as="geometry" />
        </mxCell>
        <mxCell id="HetMsq3Q_pw7XSKKTlNd-15" style="rounded=0;orthogonalLoop=1;jettySize=auto;html=1;exitX=1;exitY=0;exitDx=0;exitDy=0;entryX=0.25;entryY=1;entryDx=0;entryDy=0;endArrow=none;endFill=0;" edge="1" parent="1" source="HetMsq3Q_pw7XSKKTlNd-9" target="HetMsq3Q_pw7XSKKTlNd-1">
          <mxGeometry relative="1" as="geometry" />
        </mxCell>
        <mxCell id="HetMsq3Q_pw7XSKKTlNd-9" value="user_name" style="ellipse;whiteSpace=wrap;html=1;align=center;" vertex="1" parent="1">
          <mxGeometry x="314" y="310" width="100" height="40" as="geometry" />
        </mxCell>
        <mxCell id="HetMsq3Q_pw7XSKKTlNd-12" style="rounded=0;orthogonalLoop=1;jettySize=auto;html=1;entryX=0.5;entryY=0;entryDx=0;entryDy=0;endArrow=none;endFill=0;" edge="1" parent="1" source="HetMsq3Q_pw7XSKKTlNd-10" target="HetMsq3Q_pw7XSKKTlNd-1">
          <mxGeometry relative="1" as="geometry" />
        </mxCell>
        <mxCell id="HetMsq3Q_pw7XSKKTlNd-10" value="user_last_name" style="ellipse;whiteSpace=wrap;html=1;align=center;" vertex="1" parent="1">
          <mxGeometry x="430" y="120" width="100" height="40" as="geometry" />
        </mxCell>
        <mxCell id="HetMsq3Q_pw7XSKKTlNd-17" value="task" style="whiteSpace=wrap;html=1;align=center;" vertex="1" parent="1">
          <mxGeometry x="820" y="230" width="100" height="40" as="geometry" />
        </mxCell>
        <mxCell id="HetMsq3Q_pw7XSKKTlNd-19" style="rounded=0;orthogonalLoop=1;jettySize=auto;html=1;entryX=0;entryY=0.5;entryDx=0;entryDy=0;endArrow=ERzeroToMany;endFill=0;" edge="1" parent="1" source="HetMsq3Q_pw7XSKKTlNd-18" target="HetMsq3Q_pw7XSKKTlNd-17">
          <mxGeometry relative="1" as="geometry" />
        </mxCell>
        <mxCell id="HetMsq3Q_pw7XSKKTlNd-20" style="rounded=0;orthogonalLoop=1;jettySize=auto;html=1;entryX=1;entryY=0.5;entryDx=0;entryDy=0;endArrow=ERmandOne;endFill=0;" edge="1" parent="1" source="HetMsq3Q_pw7XSKKTlNd-18" target="HetMsq3Q_pw7XSKKTlNd-1">
          <mxGeometry relative="1" as="geometry" />
        </mxCell>
        <mxCell id="HetMsq3Q_pw7XSKKTlNd-18" value="has" style="shape=rhombus;perimeter=rhombusPerimeter;whiteSpace=wrap;html=1;align=center;" vertex="1" parent="1">
          <mxGeometry x="650" y="225" width="50" height="50" as="geometry" />
        </mxCell>
        <mxCell id="HetMsq3Q_pw7XSKKTlNd-25" style="rounded=0;orthogonalLoop=1;jettySize=auto;html=1;entryX=0;entryY=0.5;entryDx=0;entryDy=0;endArrow=ERmandOne;endFill=0;" edge="1" parent="1" source="HetMsq3Q_pw7XSKKTlNd-22" target="HetMsq3Q_pw7XSKKTlNd-1">
          <mxGeometry relative="1" as="geometry" />
        </mxCell>
        <mxCell id="HetMsq3Q_pw7XSKKTlNd-56" style="rounded=0;orthogonalLoop=1;jettySize=auto;html=1;entryX=1;entryY=0.5;entryDx=0;entryDy=0;endArrow=ERzeroToMany;endFill=0;" edge="1" parent="1" source="HetMsq3Q_pw7XSKKTlNd-22" target="HetMsq3Q_pw7XSKKTlNd-40">
          <mxGeometry relative="1" as="geometry" />
        </mxCell>
        <mxCell id="HetMsq3Q_pw7XSKKTlNd-22" value="has" style="shape=rhombus;perimeter=rhombusPerimeter;whiteSpace=wrap;html=1;align=center;" vertex="1" parent="1">
          <mxGeometry x="260" y="225" width="50" height="50" as="geometry" />
        </mxCell>
        <mxCell id="HetMsq3Q_pw7XSKKTlNd-33" style="rounded=0;orthogonalLoop=1;jettySize=auto;html=1;entryX=0;entryY=0;entryDx=0;entryDy=0;endArrow=none;endFill=0;" edge="1" parent="1" source="HetMsq3Q_pw7XSKKTlNd-26" target="HetMsq3Q_pw7XSKKTlNd-17">
          <mxGeometry relative="1" as="geometry" />
        </mxCell>
        <mxCell id="HetMsq3Q_pw7XSKKTlNd-26" value="task_id" style="ellipse;whiteSpace=wrap;html=1;align=center;fontStyle=4;" vertex="1" parent="1">
          <mxGeometry x="710" y="140" width="100" height="40" as="geometry" />
        </mxCell>
        <mxCell id="HetMsq3Q_pw7XSKKTlNd-34" style="rounded=0;orthogonalLoop=1;jettySize=auto;html=1;entryX=0.5;entryY=0;entryDx=0;entryDy=0;endArrow=none;endFill=0;" edge="1" parent="1" source="HetMsq3Q_pw7XSKKTlNd-27" target="HetMsq3Q_pw7XSKKTlNd-17">
          <mxGeometry relative="1" as="geometry" />
        </mxCell>
        <mxCell id="HetMsq3Q_pw7XSKKTlNd-27" value="task_description" style="ellipse;whiteSpace=wrap;html=1;align=center;" vertex="1" parent="1">
          <mxGeometry x="820" y="120" width="100" height="40" as="geometry" />
        </mxCell>
        <mxCell id="HetMsq3Q_pw7XSKKTlNd-37" style="rounded=0;orthogonalLoop=1;jettySize=auto;html=1;entryX=1;entryY=0;entryDx=0;entryDy=0;endArrow=none;endFill=0;" edge="1" parent="1" source="HetMsq3Q_pw7XSKKTlNd-28" target="HetMsq3Q_pw7XSKKTlNd-17">
          <mxGeometry relative="1" as="geometry" />
        </mxCell>
        <mxCell id="HetMsq3Q_pw7XSKKTlNd-28" value="task_title" style="ellipse;whiteSpace=wrap;html=1;align=center;" vertex="1" parent="1">
          <mxGeometry x="940" y="140" width="100" height="40" as="geometry" />
        </mxCell>
        <mxCell id="HetMsq3Q_pw7XSKKTlNd-39" style="rounded=0;orthogonalLoop=1;jettySize=auto;html=1;entryX=1;entryY=0.25;entryDx=0;entryDy=0;endArrow=none;endFill=0;" edge="1" parent="1" source="HetMsq3Q_pw7XSKKTlNd-29" target="HetMsq3Q_pw7XSKKTlNd-17">
          <mxGeometry relative="1" as="geometry" />
        </mxCell>
        <mxCell id="HetMsq3Q_pw7XSKKTlNd-29" value="task_category" style="ellipse;whiteSpace=wrap;html=1;align=center;" vertex="1" parent="1">
          <mxGeometry x="1030" y="170" width="100" height="40" as="geometry" />
        </mxCell>
        <mxCell id="HetMsq3Q_pw7XSKKTlNd-36" style="rounded=0;orthogonalLoop=1;jettySize=auto;html=1;entryX=0.5;entryY=1;entryDx=0;entryDy=0;endArrow=none;endFill=0;" edge="1" parent="1" source="HetMsq3Q_pw7XSKKTlNd-30" target="HetMsq3Q_pw7XSKKTlNd-17">
          <mxGeometry relative="1" as="geometry" />
        </mxCell>
        <mxCell id="HetMsq3Q_pw7XSKKTlNd-30" value="task_update_time" style="ellipse;whiteSpace=wrap;html=1;align=center;" vertex="1" parent="1">
          <mxGeometry x="820" y="340" width="100" height="40" as="geometry" />
        </mxCell>
        <mxCell id="HetMsq3Q_pw7XSKKTlNd-35" style="rounded=0;orthogonalLoop=1;jettySize=auto;html=1;entryX=0;entryY=1;entryDx=0;entryDy=0;endArrow=none;endFill=0;" edge="1" parent="1" source="HetMsq3Q_pw7XSKKTlNd-31" target="HetMsq3Q_pw7XSKKTlNd-17">
          <mxGeometry relative="1" as="geometry" />
        </mxCell>
        <mxCell id="HetMsq3Q_pw7XSKKTlNd-31" value="task_schedule_time" style="ellipse;whiteSpace=wrap;html=1;align=center;fontSize=10;" vertex="1" parent="1">
          <mxGeometry x="710" y="310" width="100" height="40" as="geometry" />
        </mxCell>
        <mxCell id="HetMsq3Q_pw7XSKKTlNd-38" style="rounded=0;orthogonalLoop=1;jettySize=auto;html=1;entryX=1;entryY=1;entryDx=0;entryDy=0;endArrow=none;endFill=0;" edge="1" parent="1" source="HetMsq3Q_pw7XSKKTlNd-32" target="HetMsq3Q_pw7XSKKTlNd-17">
          <mxGeometry relative="1" as="geometry" />
        </mxCell>
        <mxCell id="HetMsq3Q_pw7XSKKTlNd-32" value="task_start_time" style="ellipse;whiteSpace=wrap;html=1;align=center;" vertex="1" parent="1">
          <mxGeometry x="940" y="320" width="100" height="40" as="geometry" />
        </mxCell>
        <mxCell id="HetMsq3Q_pw7XSKKTlNd-40" value="completed_task" style="whiteSpace=wrap;html=1;align=center;" vertex="1" parent="1">
          <mxGeometry x="40" y="230" width="100" height="40" as="geometry" />
        </mxCell>
        <mxCell id="HetMsq3Q_pw7XSKKTlNd-41" style="rounded=0;orthogonalLoop=1;jettySize=auto;html=1;entryX=0.25;entryY=0;entryDx=0;entryDy=0;endArrow=none;endFill=0;" edge="1" parent="1" source="HetMsq3Q_pw7XSKKTlNd-42" target="HetMsq3Q_pw7XSKKTlNd-40">
          <mxGeometry relative="1" as="geometry" />
        </mxCell>
        <mxCell id="HetMsq3Q_pw7XSKKTlNd-42" value="task_id" style="ellipse;whiteSpace=wrap;html=1;align=center;fontStyle=4;" vertex="1" parent="1">
          <mxGeometry x="-20" y="130" width="100" height="40" as="geometry" />
        </mxCell>
        <mxCell id="HetMsq3Q_pw7XSKKTlNd-43" style="rounded=0;orthogonalLoop=1;jettySize=auto;html=1;entryX=0.5;entryY=0;entryDx=0;entryDy=0;endArrow=none;endFill=0;" edge="1" parent="1" source="HetMsq3Q_pw7XSKKTlNd-44" target="HetMsq3Q_pw7XSKKTlNd-40">
          <mxGeometry relative="1" as="geometry" />
        </mxCell>
        <mxCell id="HetMsq3Q_pw7XSKKTlNd-44" value="task_description" style="ellipse;whiteSpace=wrap;html=1;align=center;" vertex="1" parent="1">
          <mxGeometry x="90" y="130" width="100" height="40" as="geometry" />
        </mxCell>
        <mxCell id="HetMsq3Q_pw7XSKKTlNd-45" style="rounded=0;orthogonalLoop=1;jettySize=auto;html=1;entryX=1;entryY=0;entryDx=0;entryDy=0;endArrow=none;endFill=0;" edge="1" parent="1" source="HetMsq3Q_pw7XSKKTlNd-46" target="HetMsq3Q_pw7XSKKTlNd-40">
          <mxGeometry relative="1" as="geometry" />
        </mxCell>
        <mxCell id="HetMsq3Q_pw7XSKKTlNd-46" value="task_title" style="ellipse;whiteSpace=wrap;html=1;align=center;" vertex="1" parent="1">
          <mxGeometry x="170" y="180" width="100" height="40" as="geometry" />
        </mxCell>
        <mxCell id="HetMsq3Q_pw7XSKKTlNd-55" style="rounded=0;orthogonalLoop=1;jettySize=auto;html=1;entryX=0;entryY=0;entryDx=0;entryDy=0;endArrow=none;endFill=0;" edge="1" parent="1" source="HetMsq3Q_pw7XSKKTlNd-48" target="HetMsq3Q_pw7XSKKTlNd-40">
          <mxGeometry relative="1" as="geometry" />
        </mxCell>
        <mxCell id="HetMsq3Q_pw7XSKKTlNd-48" value="task_category" style="ellipse;whiteSpace=wrap;html=1;align=center;" vertex="1" parent="1">
          <mxGeometry x="-110" y="160" width="100" height="40" as="geometry" />
        </mxCell>
        <mxCell id="HetMsq3Q_pw7XSKKTlNd-49" style="rounded=0;orthogonalLoop=1;jettySize=auto;html=1;entryX=0.5;entryY=1;entryDx=0;entryDy=0;endArrow=none;endFill=0;" edge="1" parent="1" source="HetMsq3Q_pw7XSKKTlNd-50" target="HetMsq3Q_pw7XSKKTlNd-40">
          <mxGeometry relative="1" as="geometry" />
        </mxCell>
        <mxCell id="HetMsq3Q_pw7XSKKTlNd-50" value="task_update_time" style="ellipse;whiteSpace=wrap;html=1;align=center;" vertex="1" parent="1">
          <mxGeometry x="90" y="330" width="100" height="40" as="geometry" />
        </mxCell>
        <mxCell id="HetMsq3Q_pw7XSKKTlNd-51" style="rounded=0;orthogonalLoop=1;jettySize=auto;html=1;entryX=0.25;entryY=1;entryDx=0;entryDy=0;endArrow=none;endFill=0;" edge="1" parent="1" source="HetMsq3Q_pw7XSKKTlNd-52" target="HetMsq3Q_pw7XSKKTlNd-40">
          <mxGeometry relative="1" as="geometry" />
        </mxCell>
        <mxCell id="HetMsq3Q_pw7XSKKTlNd-52" value="task_schedule_time" style="ellipse;whiteSpace=wrap;html=1;align=center;fontSize=10;" vertex="1" parent="1">
          <mxGeometry x="-20" y="330" width="100" height="40" as="geometry" />
        </mxCell>
        <mxCell id="HetMsq3Q_pw7XSKKTlNd-53" style="rounded=0;orthogonalLoop=1;jettySize=auto;html=1;entryX=1;entryY=1;entryDx=0;entryDy=0;endArrow=none;endFill=0;" edge="1" parent="1" source="HetMsq3Q_pw7XSKKTlNd-54" target="HetMsq3Q_pw7XSKKTlNd-40">
          <mxGeometry relative="1" as="geometry" />
        </mxCell>
        <mxCell id="HetMsq3Q_pw7XSKKTlNd-54" value="task_start_time" style="ellipse;whiteSpace=wrap;html=1;align=center;" vertex="1" parent="1">
          <mxGeometry x="170" y="280" width="100" height="40" as="geometry" />
        </mxCell>
        <mxCell id="mVp9vrJO0JoDN3IoSPeH-2" style="rounded=0;orthogonalLoop=1;jettySize=auto;html=1;entryX=0;entryY=1;entryDx=0;entryDy=0;endArrow=none;endFill=0;" edge="1" parent="1" source="mVp9vrJO0JoDN3IoSPeH-1" target="HetMsq3Q_pw7XSKKTlNd-40">
          <mxGeometry relative="1" as="geometry" />
        </mxCell>
        <mxCell id="mVp9vrJO0JoDN3IoSPeH-1" value="completed_time" style="ellipse;whiteSpace=wrap;html=1;align=center;" vertex="1" parent="1">
          <mxGeometry x="-120" y="310" width="100" height="40" as="geometry" />
        </mxCell>
        <mxCell id="ZRuFGmzvUffjBIY5wRwg-5" style="rounded=0;orthogonalLoop=1;jettySize=auto;html=1;entryX=0;entryY=0.75;entryDx=0;entryDy=0;endArrow=none;endFill=0;" edge="1" parent="1" source="ZRuFGmzvUffjBIY5wRwg-2" target="HetMsq3Q_pw7XSKKTlNd-40">
          <mxGeometry relative="1" as="geometry" />
        </mxCell>
        <mxCell id="ZRuFGmzvUffjBIY5wRwg-2" value="task_priority" style="ellipse;whiteSpace=wrap;html=1;align=center;" vertex="1" parent="1">
          <mxGeometry x="-160" y="260" width="100" height="40" as="geometry" />
        </mxCell>
        <mxCell id="ZRuFGmzvUffjBIY5wRwg-8" style="rounded=0;orthogonalLoop=1;jettySize=auto;html=1;entryX=1;entryY=0.75;entryDx=0;entryDy=0;endArrow=none;endFill=0;" edge="1" parent="1" source="ZRuFGmzvUffjBIY5wRwg-7" target="HetMsq3Q_pw7XSKKTlNd-17">
          <mxGeometry relative="1" as="geometry" />
        </mxCell>
        <mxCell id="ZRuFGmzvUffjBIY5wRwg-7" value="task_priority" style="ellipse;whiteSpace=wrap;html=1;align=center;" vertex="1" parent="1">
          <mxGeometry x="1030" y="290" width="100" height="40" as="geometry" />
        </mxCell>
        <mxCell id="7VcgJyqb5bpIi08MVYhD-2" style="rounded=0;orthogonalLoop=1;jettySize=auto;html=1;entryX=1;entryY=0.5;entryDx=0;entryDy=0;endArrow=none;endFill=0;" edge="1" parent="1" source="7VcgJyqb5bpIi08MVYhD-1" target="HetMsq3Q_pw7XSKKTlNd-17">
          <mxGeometry relative="1" as="geometry" />
        </mxCell>
        <mxCell id="7VcgJyqb5bpIi08MVYhD-1" value="task_frequency" style="ellipse;whiteSpace=wrap;html=1;align=center;" vertex="1" parent="1">
          <mxGeometry x="1040" y="230" width="100" height="40" as="geometry" />
        </mxCell>
        <mxCell id="7VcgJyqb5bpIi08MVYhD-4" style="rounded=0;orthogonalLoop=1;jettySize=auto;html=1;exitX=1;exitY=0.5;exitDx=0;exitDy=0;entryX=0;entryY=0.25;entryDx=0;entryDy=0;endArrow=none;endFill=0;" edge="1" parent="1" source="7VcgJyqb5bpIi08MVYhD-3" target="HetMsq3Q_pw7XSKKTlNd-40">
          <mxGeometry relative="1" as="geometry" />
        </mxCell>
        <mxCell id="7VcgJyqb5bpIi08MVYhD-3" value="task_frequency" style="ellipse;whiteSpace=wrap;html=1;align=center;" vertex="1" parent="1">
          <mxGeometry x="-160" y="210" width="100" height="40" as="geometry" />
        </mxCell>
      </root>
    </mxGraphModel>
  </diagram>
  <diagram id="prUuwS5i66ckOHyZ2cWU" name="LogicalSchema">
    <mxGraphModel dx="1384" dy="836" grid="1" gridSize="10" guides="1" tooltips="1" connect="1" arrows="1" fold="1" page="1" pageScale="1" pageWidth="827" pageHeight="1169" math="0" shadow="0">
      <root>
        <mxCell id="0" />
        <mxCell id="1" parent="0" />
        <mxCell id="a6sO2WP58BicDe3Y5xq9-1" value="user" style="shape=table;startSize=30;container=1;collapsible=0;childLayout=tableLayout;strokeColor=default;fontSize=12;" parent="1" vertex="1">
          <mxGeometry x="40" y="80" width="1180" height="70" as="geometry" />
        </mxCell>
        <mxCell id="a6sO2WP58BicDe3Y5xq9-2" value="" style="shape=tableRow;horizontal=0;startSize=0;swimlaneHead=0;swimlaneBody=0;strokeColor=inherit;top=0;left=0;bottom=0;right=0;collapsible=0;dropTarget=0;fillColor=none;points=[[0,0.5],[1,0.5]];portConstraint=eastwest;fontSize=12;" parent="a6sO2WP58BicDe3Y5xq9-1" vertex="1">
          <mxGeometry y="30" width="1180" height="40" as="geometry" />
        </mxCell>
        <mxCell id="a6sO2WP58BicDe3Y5xq9-3" value="&lt;u&gt;user_id&lt;/u&gt;" style="shape=partialRectangle;html=1;whiteSpace=wrap;connectable=0;strokeColor=inherit;overflow=hidden;fillColor=none;top=0;left=0;bottom=0;right=0;pointerEvents=1;fontSize=12;" parent="a6sO2WP58BicDe3Y5xq9-2" vertex="1">
          <mxGeometry width="197" height="40" as="geometry">
            <mxRectangle width="197" height="40" as="alternateBounds" />
          </mxGeometry>
        </mxCell>
        <mxCell id="a6sO2WP58BicDe3Y5xq9-4" value="user_first_name" style="shape=partialRectangle;html=1;whiteSpace=wrap;connectable=0;strokeColor=inherit;overflow=hidden;fillColor=none;top=0;left=0;bottom=0;right=0;pointerEvents=1;fontSize=12;" parent="a6sO2WP58BicDe3Y5xq9-2" vertex="1">
          <mxGeometry x="197" width="196" height="40" as="geometry">
            <mxRectangle width="196" height="40" as="alternateBounds" />
          </mxGeometry>
        </mxCell>
        <mxCell id="ouC8sG0uYPLBr3_tIkBT-1" value="user_last_name" style="shape=partialRectangle;html=1;whiteSpace=wrap;connectable=0;strokeColor=inherit;overflow=hidden;fillColor=none;top=0;left=0;bottom=0;right=0;pointerEvents=1;fontSize=12;" parent="a6sO2WP58BicDe3Y5xq9-2" vertex="1">
          <mxGeometry x="393" width="197" height="40" as="geometry">
            <mxRectangle width="197" height="40" as="alternateBounds" />
          </mxGeometry>
        </mxCell>
        <mxCell id="ouC8sG0uYPLBr3_tIkBT-4" value="user_name" style="shape=partialRectangle;html=1;whiteSpace=wrap;connectable=0;strokeColor=inherit;overflow=hidden;fillColor=none;top=0;left=0;bottom=0;right=0;pointerEvents=1;fontSize=12;" parent="a6sO2WP58BicDe3Y5xq9-2" vertex="1">
          <mxGeometry x="590" width="197" height="40" as="geometry">
            <mxRectangle width="197" height="40" as="alternateBounds" />
          </mxGeometry>
        </mxCell>
        <mxCell id="ouC8sG0uYPLBr3_tIkBT-7" value="user_password" style="shape=partialRectangle;html=1;whiteSpace=wrap;connectable=0;strokeColor=inherit;overflow=hidden;fillColor=none;top=0;left=0;bottom=0;right=0;pointerEvents=1;fontSize=12;" parent="a6sO2WP58BicDe3Y5xq9-2" vertex="1">
          <mxGeometry x="787" width="196" height="40" as="geometry">
            <mxRectangle width="196" height="40" as="alternateBounds" />
          </mxGeometry>
        </mxCell>
        <mxCell id="ouC8sG0uYPLBr3_tIkBT-10" value="user_email" style="shape=partialRectangle;html=1;whiteSpace=wrap;connectable=0;strokeColor=inherit;overflow=hidden;fillColor=none;top=0;left=0;bottom=0;right=0;pointerEvents=1;fontSize=12;" parent="a6sO2WP58BicDe3Y5xq9-2" vertex="1">
          <mxGeometry x="983" width="197" height="40" as="geometry">
            <mxRectangle width="197" height="40" as="alternateBounds" />
          </mxGeometry>
        </mxCell>
        <mxCell id="Ao41FPxyPpS_ojRI0oBe-8" value="task" style="shape=table;startSize=30;container=1;collapsible=0;childLayout=tableLayout;strokeColor=default;fontSize=12;" parent="1" vertex="1">
          <mxGeometry x="34" y="200" width="1184" height="70" as="geometry" />
        </mxCell>
        <mxCell id="Ao41FPxyPpS_ojRI0oBe-9" value="" style="shape=tableRow;horizontal=0;startSize=0;swimlaneHead=0;swimlaneBody=0;strokeColor=inherit;top=0;left=0;bottom=0;right=0;collapsible=0;dropTarget=0;fillColor=none;points=[[0,0.5],[1,0.5]];portConstraint=eastwest;fontSize=12;" parent="Ao41FPxyPpS_ojRI0oBe-8" vertex="1">
          <mxGeometry y="30" width="1184" height="40" as="geometry" />
        </mxCell>
        <mxCell id="Ao41FPxyPpS_ojRI0oBe-10" value="&lt;u&gt;task_id (PK)&lt;/u&gt;" style="shape=partialRectangle;html=1;whiteSpace=wrap;connectable=0;strokeColor=inherit;overflow=hidden;fillColor=none;top=0;left=0;bottom=0;right=0;pointerEvents=1;fontSize=12;" parent="Ao41FPxyPpS_ojRI0oBe-9" vertex="1">
          <mxGeometry width="119" height="40" as="geometry">
            <mxRectangle width="119" height="40" as="alternateBounds" />
          </mxGeometry>
        </mxCell>
        <mxCell id="ilyaIpi8KQ_YKZ-1zoGV-8" value="user_id (FK)" style="shape=partialRectangle;html=1;whiteSpace=wrap;connectable=0;strokeColor=inherit;overflow=hidden;fillColor=none;top=0;left=0;bottom=0;right=0;pointerEvents=1;fontSize=12;" parent="Ao41FPxyPpS_ojRI0oBe-9" vertex="1">
          <mxGeometry x="119" width="117" height="40" as="geometry">
            <mxRectangle width="117" height="40" as="alternateBounds" />
          </mxGeometry>
        </mxCell>
        <mxCell id="ilyaIpi8KQ_YKZ-1zoGV-7" value="task_description" style="shape=partialRectangle;html=1;whiteSpace=wrap;connectable=0;strokeColor=inherit;overflow=hidden;fillColor=none;top=0;left=0;bottom=0;right=0;pointerEvents=1;fontSize=12;" parent="Ao41FPxyPpS_ojRI0oBe-9" vertex="1">
          <mxGeometry x="236" width="118" height="40" as="geometry">
            <mxRectangle width="118" height="40" as="alternateBounds" />
          </mxGeometry>
        </mxCell>
        <mxCell id="ilyaIpi8KQ_YKZ-1zoGV-6" value="task_title" style="shape=partialRectangle;html=1;whiteSpace=wrap;connectable=0;strokeColor=inherit;overflow=hidden;fillColor=none;top=0;left=0;bottom=0;right=0;pointerEvents=1;fontSize=12;" parent="Ao41FPxyPpS_ojRI0oBe-9" vertex="1">
          <mxGeometry x="354" width="118" height="40" as="geometry">
            <mxRectangle width="118" height="40" as="alternateBounds" />
          </mxGeometry>
        </mxCell>
        <mxCell id="ilyaIpi8KQ_YKZ-1zoGV-5" value="task_category" style="shape=partialRectangle;html=1;whiteSpace=wrap;connectable=0;strokeColor=inherit;overflow=hidden;fillColor=none;top=0;left=0;bottom=0;right=0;pointerEvents=1;fontSize=12;" parent="Ao41FPxyPpS_ojRI0oBe-9" vertex="1">
          <mxGeometry x="472" width="120" height="40" as="geometry">
            <mxRectangle width="120" height="40" as="alternateBounds" />
          </mxGeometry>
        </mxCell>
        <mxCell id="ilyaIpi8KQ_YKZ-1zoGV-4" value="task_start_time" style="shape=partialRectangle;html=1;whiteSpace=wrap;connectable=0;strokeColor=inherit;overflow=hidden;fillColor=none;top=0;left=0;bottom=0;right=0;pointerEvents=1;fontSize=12;" parent="Ao41FPxyPpS_ojRI0oBe-9" vertex="1">
          <mxGeometry x="592" width="118" height="40" as="geometry">
            <mxRectangle width="118" height="40" as="alternateBounds" />
          </mxGeometry>
        </mxCell>
        <mxCell id="ilyaIpi8KQ_YKZ-1zoGV-3" value="task_update_time" style="shape=partialRectangle;html=1;whiteSpace=wrap;connectable=0;strokeColor=inherit;overflow=hidden;fillColor=none;top=0;left=0;bottom=0;right=0;pointerEvents=1;fontSize=12;" parent="Ao41FPxyPpS_ojRI0oBe-9" vertex="1">
          <mxGeometry x="710" width="117" height="40" as="geometry">
            <mxRectangle width="117" height="40" as="alternateBounds" />
          </mxGeometry>
        </mxCell>
        <mxCell id="ilyaIpi8KQ_YKZ-1zoGV-2" value="&lt;span style=&quot;font-size: 10px;&quot;&gt;task_schedule_time&lt;/span&gt;" style="shape=partialRectangle;html=1;whiteSpace=wrap;connectable=0;strokeColor=inherit;overflow=hidden;fillColor=none;top=0;left=0;bottom=0;right=0;pointerEvents=1;fontSize=12;" parent="Ao41FPxyPpS_ojRI0oBe-9" vertex="1">
          <mxGeometry x="827" width="119" height="40" as="geometry">
            <mxRectangle width="119" height="40" as="alternateBounds" />
          </mxGeometry>
        </mxCell>
        <mxCell id="gyeAlXuVCQt0H6QsEYjs-1" value="task_priority" style="shape=partialRectangle;html=1;whiteSpace=wrap;connectable=0;strokeColor=inherit;overflow=hidden;fillColor=none;top=0;left=0;bottom=0;right=0;pointerEvents=1;fontSize=12;" parent="Ao41FPxyPpS_ojRI0oBe-9" vertex="1">
          <mxGeometry x="946" width="119" height="40" as="geometry">
            <mxRectangle width="119" height="40" as="alternateBounds" />
          </mxGeometry>
        </mxCell>
        <mxCell id="it0vzIFH2kdqPYaTMUDr-1" value="task_frequency" style="shape=partialRectangle;html=1;whiteSpace=wrap;connectable=0;strokeColor=inherit;overflow=hidden;fillColor=none;top=0;left=0;bottom=0;right=0;pointerEvents=1;fontSize=12;" parent="Ao41FPxyPpS_ojRI0oBe-9" vertex="1">
          <mxGeometry x="1065" width="119" height="40" as="geometry">
            <mxRectangle width="119" height="40" as="alternateBounds" />
          </mxGeometry>
        </mxCell>
        <mxCell id="ODe5E5c8l38J1HkhMy7t-1" value="completed_task" style="shape=table;startSize=30;container=1;collapsible=0;childLayout=tableLayout;strokeColor=default;fontSize=12;" parent="1" vertex="1">
          <mxGeometry x="31" y="350" width="1189" height="70" as="geometry" />
        </mxCell>
        <mxCell id="ODe5E5c8l38J1HkhMy7t-2" value="" style="shape=tableRow;horizontal=0;startSize=0;swimlaneHead=0;swimlaneBody=0;strokeColor=inherit;top=0;left=0;bottom=0;right=0;collapsible=0;dropTarget=0;fillColor=none;points=[[0,0.5],[1,0.5]];portConstraint=eastwest;fontSize=12;" parent="ODe5E5c8l38J1HkhMy7t-1" vertex="1">
          <mxGeometry y="30" width="1189" height="40" as="geometry" />
        </mxCell>
        <mxCell id="ODe5E5c8l38J1HkhMy7t-3" value="&lt;u&gt;task_id (PK)&lt;/u&gt;" style="shape=partialRectangle;html=1;whiteSpace=wrap;connectable=0;strokeColor=inherit;overflow=hidden;fillColor=none;top=0;left=0;bottom=0;right=0;pointerEvents=1;fontSize=12;" parent="ODe5E5c8l38J1HkhMy7t-2" vertex="1">
          <mxGeometry width="108" height="40" as="geometry">
            <mxRectangle width="108" height="40" as="alternateBounds" />
          </mxGeometry>
        </mxCell>
        <mxCell id="ODe5E5c8l38J1HkhMy7t-4" value="user_id (FK)" style="shape=partialRectangle;html=1;whiteSpace=wrap;connectable=0;strokeColor=inherit;overflow=hidden;fillColor=none;top=0;left=0;bottom=0;right=0;pointerEvents=1;fontSize=12;" parent="ODe5E5c8l38J1HkhMy7t-2" vertex="1">
          <mxGeometry x="108" width="107" height="40" as="geometry">
            <mxRectangle width="107" height="40" as="alternateBounds" />
          </mxGeometry>
        </mxCell>
        <mxCell id="ODe5E5c8l38J1HkhMy7t-5" value="task_description" style="shape=partialRectangle;html=1;whiteSpace=wrap;connectable=0;strokeColor=inherit;overflow=hidden;fillColor=none;top=0;left=0;bottom=0;right=0;pointerEvents=1;fontSize=12;" parent="ODe5E5c8l38J1HkhMy7t-2" vertex="1">
          <mxGeometry x="215" width="109" height="40" as="geometry">
            <mxRectangle width="109" height="40" as="alternateBounds" />
          </mxGeometry>
        </mxCell>
        <mxCell id="ODe5E5c8l38J1HkhMy7t-6" value="task_title" style="shape=partialRectangle;html=1;whiteSpace=wrap;connectable=0;strokeColor=inherit;overflow=hidden;fillColor=none;top=0;left=0;bottom=0;right=0;pointerEvents=1;fontSize=12;" parent="ODe5E5c8l38J1HkhMy7t-2" vertex="1">
          <mxGeometry x="324" width="108" height="40" as="geometry">
            <mxRectangle width="108" height="40" as="alternateBounds" />
          </mxGeometry>
        </mxCell>
        <mxCell id="ODe5E5c8l38J1HkhMy7t-7" value="task_category" style="shape=partialRectangle;html=1;whiteSpace=wrap;connectable=0;strokeColor=inherit;overflow=hidden;fillColor=none;top=0;left=0;bottom=0;right=0;pointerEvents=1;fontSize=12;" parent="ODe5E5c8l38J1HkhMy7t-2" vertex="1">
          <mxGeometry x="432" width="108" height="40" as="geometry">
            <mxRectangle width="108" height="40" as="alternateBounds" />
          </mxGeometry>
        </mxCell>
        <mxCell id="ODe5E5c8l38J1HkhMy7t-8" value="task_start_time" style="shape=partialRectangle;html=1;whiteSpace=wrap;connectable=0;strokeColor=inherit;overflow=hidden;fillColor=none;top=0;left=0;bottom=0;right=0;pointerEvents=1;fontSize=12;" parent="ODe5E5c8l38J1HkhMy7t-2" vertex="1">
          <mxGeometry x="540" width="108" height="40" as="geometry">
            <mxRectangle width="108" height="40" as="alternateBounds" />
          </mxGeometry>
        </mxCell>
        <mxCell id="ODe5E5c8l38J1HkhMy7t-9" value="task_update_time" style="shape=partialRectangle;html=1;whiteSpace=wrap;connectable=0;strokeColor=inherit;overflow=hidden;fillColor=none;top=0;left=0;bottom=0;right=0;pointerEvents=1;fontSize=12;" parent="ODe5E5c8l38J1HkhMy7t-2" vertex="1">
          <mxGeometry x="648" width="108" height="40" as="geometry">
            <mxRectangle width="108" height="40" as="alternateBounds" />
          </mxGeometry>
        </mxCell>
        <mxCell id="ODe5E5c8l38J1HkhMy7t-10" value="&lt;span style=&quot;font-size: 10px;&quot;&gt;task_schedule_time&lt;/span&gt;" style="shape=partialRectangle;html=1;whiteSpace=wrap;connectable=0;strokeColor=inherit;overflow=hidden;fillColor=none;top=0;left=0;bottom=0;right=0;pointerEvents=1;fontSize=12;" parent="ODe5E5c8l38J1HkhMy7t-2" vertex="1">
          <mxGeometry x="756" width="107" height="40" as="geometry">
            <mxRectangle width="107" height="40" as="alternateBounds" />
          </mxGeometry>
        </mxCell>
        <mxCell id="ODe5E5c8l38J1HkhMy7t-11" value="completed_time" style="shape=partialRectangle;html=1;whiteSpace=wrap;connectable=0;strokeColor=inherit;overflow=hidden;fillColor=none;top=0;left=0;bottom=0;right=0;pointerEvents=1;fontSize=12;" parent="ODe5E5c8l38J1HkhMy7t-2" vertex="1">
          <mxGeometry x="863" width="110" height="40" as="geometry">
            <mxRectangle width="110" height="40" as="alternateBounds" />
          </mxGeometry>
        </mxCell>
        <mxCell id="gyeAlXuVCQt0H6QsEYjs-2" value="task_priority" style="shape=partialRectangle;html=1;whiteSpace=wrap;connectable=0;strokeColor=inherit;overflow=hidden;fillColor=none;top=0;left=0;bottom=0;right=0;pointerEvents=1;fontSize=12;" parent="ODe5E5c8l38J1HkhMy7t-2" vertex="1">
          <mxGeometry x="973" width="108" height="40" as="geometry">
            <mxRectangle width="108" height="40" as="alternateBounds" />
          </mxGeometry>
        </mxCell>
        <mxCell id="it0vzIFH2kdqPYaTMUDr-2" value="task_frequency" style="shape=partialRectangle;html=1;whiteSpace=wrap;connectable=0;strokeColor=inherit;overflow=hidden;fillColor=none;top=0;left=0;bottom=0;right=0;pointerEvents=1;fontSize=12;" parent="ODe5E5c8l38J1HkhMy7t-2" vertex="1">
          <mxGeometry x="1081" width="108" height="40" as="geometry">
            <mxRectangle width="108" height="40" as="alternateBounds" />
          </mxGeometry>
        </mxCell>
        <mxCell id="PrG0_k0ys_7Fo2xFHwNj-2" style="edgeStyle=orthogonalEdgeStyle;rounded=0;orthogonalLoop=1;jettySize=auto;html=1;exitX=0.138;exitY=0.993;exitDx=0;exitDy=0;entryX=0;entryY=0.839;entryDx=0;entryDy=0;entryPerimeter=0;exitPerimeter=0;" parent="1" source="ODe5E5c8l38J1HkhMy7t-2" target="a6sO2WP58BicDe3Y5xq9-2" edge="1">
          <mxGeometry relative="1" as="geometry">
            <Array as="points">
              <mxPoint x="195" y="440" />
              <mxPoint x="10" y="440" />
              <mxPoint x="10" y="144" />
            </Array>
          </mxGeometry>
        </mxCell>
        <mxCell id="PrG0_k0ys_7Fo2xFHwNj-1" style="edgeStyle=orthogonalEdgeStyle;rounded=0;orthogonalLoop=1;jettySize=auto;html=1;entryX=0;entryY=0.41;entryDx=0;entryDy=0;entryPerimeter=0;" parent="1" target="a6sO2WP58BicDe3Y5xq9-2" edge="1">
          <mxGeometry relative="1" as="geometry">
            <mxPoint x="210" y="270" as="sourcePoint" />
            <Array as="points">
              <mxPoint x="210" y="290" />
              <mxPoint x="20" y="290" />
              <mxPoint x="20" y="126" />
            </Array>
          </mxGeometry>
        </mxCell>
      </root>
    </mxGraphModel>
  </diagram>
</mxfile>
